<svg width="567" height="227" xmlns="http://www.w3.org/2000/svg" xmlns:xlink="http://www.w3.org/1999/xlink" overflow="hidden"><defs><clipPath id="clip0"><rect x="0" y="0" width="567" height="227"/></clipPath></defs><g clip-path="url(#clip0)"><rect x="0" y="0" width="567" height="227.167" fill="#FFFFFF"/><rect x="198.5" y="179.632" width="161" height="29.0213" stroke="#000000" stroke-width="1.33333" stroke-miterlimit="8" fill="#B4C7E7"/><text font-family="Cambria Math,Cambria Math_MSFontService,sans-serif" font-weight="400" font-size="24" transform="matrix(1 0 0 1.00073 263.817 199)">π‘<tspan font-size="18" x="19.6133" y="4.99633">1</tspan></text><rect x="384.5" y="179.632" width="160" height="29.0213" stroke="#000000" stroke-width="1.33333" stroke-miterlimit="8" fill="#B4C7E7"/><text font-family="Cambria Math,Cambria Math_MSFontService,sans-serif" font-weight="400" font-size="24" transform="matrix(1 0 0 1.00073 448.439 199)">π‘<tspan font-size="18" x="20.1667" y="4.99633">2</tspan></text><rect x="198.5" y="20.5151" width="161" height="29.0213" stroke="#000000" stroke-width="1.33333" stroke-miterlimit="8" fill="#F8CBAD"/><text font-family="Cambria Math,Cambria Math_MSFontService,sans-serif" font-weight="400" font-size="24" transform="matrix(1 0 0 1.00073 268.022 38)">π‘<tspan font-size="18" x="9.86002" y="4.99633">1</tspan></text><rect x="384.5" y="20.5151" width="161" height="29.0213" stroke="#000000" stroke-width="1.33333" stroke-miterlimit="8" fill="#F8CBAD"/><text font-family="Cambria Math,Cambria Math_MSFontService,sans-serif" font-weight="400" font-size="24" transform="matrix(1 0 0 1.00073 453.598 38)">π‘<tspan font-size="18" x="10.4133" y="4.99633">2</tspan></text><rect x="13.5001" y="20.5151" width="160" height="29.0213" stroke="#000000" stroke-width="1.33333" stroke-miterlimit="8" fill="#C5E0B4"/><text font-family="Cambria Math,Cambria Math_MSFontService,sans-serif" font-weight="400" font-size="24" transform="matrix(1 0 0 1.00073 83.4061 43)">πΌπ‘‰</text><path d="M254.5 86.6908C254.5 80.5409 259.482 75.5555 265.627 75.5555L293.373 75.5555C299.518 75.5555 304.5 80.5409 304.5 86.6908L304.5 103.449C304.5 109.599 299.518 114.584 293.373 114.584L265.627 114.584C259.482 114.584 254.5 109.599 254.5 103.449Z" stroke="#000000" stroke-width="1.33333" stroke-miterlimit="8" fill-rule="evenodd"/><path d="M271.5 146.608C271.5 142.739 274.858 139.603 279 139.603 283.142 139.603 286.5 142.739 286.5 146.608 286.5 150.477 283.142 153.613 279 153.613 274.858 153.613 271.5 150.477 271.5 146.608Z" stroke="#000000" stroke-width="1.33333" stroke-miterlimit="8" fill="#FFFFFF" fill-rule="evenodd"/><path d="M278.5 139.603 278.5 153.935" stroke="#000000" stroke-width="1.33333" stroke-miterlimit="8" fill="none" fill-rule="evenodd"/><path d="M271.5 146.608 286.024 146.608" stroke="#000000" stroke-width="1.33333" stroke-miterlimit="8" fill="none" fill-rule="evenodd"/><path d="M0.666639-0.00603448 0.828657 17.8923-0.504622 17.9044-0.666639 0.00603448ZM4.14978 16.5288 0.222362 24.5647-3.84989 16.6013Z" transform="matrix(-1 0 0 1.00073 278.722 114.584)"/><path d="M0-0.666667 97.4803-0.666667 97.4803 171.604 96.147 171.604 96.147 0 96.8136 0.666667 0 0.666667ZM100.814 170.271 96.8136 178.271 92.8136 170.271Z" transform="matrix(1.83697e-16 1.00073 1 -1.83832e-16 93.5001 49.5364)"/><path d="M439.5 86.6908C439.5 80.5409 444.482 75.5555 450.627 75.5555L478.373 75.5555C484.518 75.5555 489.5 80.5409 489.5 86.6908L489.5 103.449C489.5 109.599 484.518 114.584 478.373 114.584L450.627 114.584C444.482 114.584 439.5 109.599 439.5 103.449Z" stroke="#000000" stroke-width="1.33333" stroke-miterlimit="8" fill-rule="evenodd"/><path d="M0.666639-0.00603448 0.828657 17.8923-0.504622 17.9044-0.666639 0.00603448ZM4.14978 16.5288 0.222362 24.5647-3.84989 16.6013Z" transform="matrix(-1 0 0 1.00073 464.722 153.613)"/><path d="M0.666665-0.00148876 0.70931 19.095-0.62402 19.098-0.666665 0.00148876ZM4.03966 17.7542 0.0575328 25.7631-3.96032 17.7721Z" transform="matrix(-1 0 0 1.00073 464.558 49.5364)"/><path d="M457.5 146.107C457.5 141.962 460.634 138.602 464.5 138.602 468.366 138.602 471.5 141.962 471.5 146.107 471.5 150.253 468.366 153.613 464.5 153.613 460.634 153.613 457.5 150.253 457.5 146.107Z" stroke="#000000" stroke-width="1.33333" stroke-miterlimit="8" fill="#FFFFFF" fill-rule="evenodd"/><path d="M464.5 138.602 464.5 152.934" stroke="#000000" stroke-width="1.33333" stroke-miterlimit="8" fill="none" fill-rule="evenodd"/><path d="M457.5 146.608 472.024 146.608" stroke="#000000" stroke-width="1.33333" stroke-miterlimit="8" fill="none" fill-rule="evenodd"/><path d="M343.5 50.2036 342.129 50.2036 342.796 49.5364 342.796 146.237 342.129 145.57 451.092 145.57 451.092 146.904 341.462 146.904 341.462 48.8693 343.5 48.8693ZM449.759 142.234 457.759 146.237 449.759 150.24Z"/><path d="M0 0 96.3146 0 96.3146 8.25008 96.6296 8.25008" stroke="#000000" stroke-width="1.33333" stroke-miterlimit="8" fill="none" fill-rule="evenodd" transform="matrix(1.83697e-16 1.00073 1 -1.83832e-16 523.5 49.5364)"/><path d="M532.5 145.607 545.291 145.607" stroke="#000000" stroke-width="1.33333" stroke-miterlimit="8" stroke-dasharray="1.33333 1.33333" fill="none" fill-rule="evenodd"/><text font-family="Cambria Math,Cambria Math_MSFontService,sans-serif" font-weight="400" font-size="24" transform="matrix(1 0 0 1.00073 210.436 103)">π‘</text><path d="M227.5 93.9023 247.864 93.9024 247.864 95.2367 227.5 95.2366ZM246.531 90.5666 254.531 94.5696 246.531 98.5725Z"/><text font-family="Cambria Math,Cambria Math_MSFontService,sans-serif" font-weight="400" font-size="24" transform="matrix(1 0 0 1.00073 395.589 103)">π‘</text><path d="M412.5 93.9023 432.864 93.9024 432.864 95.2367 412.5 95.2366ZM431.531 90.5666 439.531 94.5696 431.531 98.5725Z"/><text fill="#FFFFFF" font-family="Cambria Math,Cambria Math_MSFontService,sans-serif" font-weight="400" font-size="24" transform="matrix(1 0 0 1.00073 259.905 101)">π·<tspan font-size="18" x="15.26" y="4.99633">πµπ¶</tspan><tspan x="184.993" y="0">π·</tspan><tspan font-size="18" x="200.253" y="3.99706">πµπ¶</tspan></text><path d="M280.167 49.5321 280.289 68.626 278.956 68.6345 278.833 49.5407ZM283.614 67.2703 279.665 75.3017 275.614 67.3216Z"/><path d="M0.666639-0.00603448 0.828657 17.8923-0.504622 17.9044-0.666639 0.00603448ZM4.14978 16.5288 0.222362 24.5647-3.84989 16.6013Z" transform="matrix(-1 0 0 1.00073 278.722 154.614)"/><path d="M0.666665-0.00148876 0.70931 19.095-0.62402 19.098-0.666665 0.00148876ZM4.03966 17.7542 0.0575328 25.7631-3.96032 17.7721Z" transform="matrix(-1 0 0 1.00073 464.558 113.583)"/></g></svg>