<svg width="567" height="250" xmlns="http://www.w3.org/2000/svg" xmlns:xlink="http://www.w3.org/1999/xlink" overflow="hidden"><defs><clipPath id="clip0"><rect x="0" y="0" width="567" height="250"/></clipPath></defs><g clip-path="url(#clip0)"><rect x="0" y="0" width="567" height="250.501" fill="#FFFFFF"/><path d="M343.5 61.2893 340.129 61.2893 340.796 60.6213 340.796 157.445 340.129 156.777 451.092 156.777 451.092 158.113 339.463 158.113 339.463 59.9533 343.5 59.9533ZM449.759 153.437 457.759 157.445 449.759 161.453Z" fill="#D9D9D9"/><rect x="198.5" y="190.882" width="141" height="30.0601" stroke="#000000" stroke-width="1.33333" stroke-miterlimit="8" fill="#B4C7E7"/><text font-family="Cambria Math,Cambria Math_MSFontService,sans-serif" font-weight="400" font-size="24" transform="matrix(1 0 0 1.002 263.704 239)">𝑚<tspan font-size="18" x="20.1667" y="3.992">2</tspan></text><rect x="384.5" y="190.882" width="100" height="30.0601" stroke="#BFBFBF" stroke-width="1.33333" stroke-miterlimit="8" fill="#D9D9D9"/><text fill="#BFBFBF" font-family="Cambria Math,Cambria Math_MSFontService,sans-serif" font-weight="400" font-size="24" transform="matrix(1 0 0 1.002 452.123 239)">𝑚<tspan font-size="18" x="20.1667" y="4.99">3</tspan></text><rect x="198.5" y="31.5632" width="161" height="29.0581" stroke="#000000" stroke-width="1.33333" stroke-miterlimit="8" fill="#F8CBAD"/><text font-family="Cambria Math,Cambria Math_MSFontService,sans-serif" font-weight="400" font-size="24" transform="matrix(1 0 0 1.002 267.749 21)">𝑐<tspan font-size="18" x="10.4134" y="4.99">2</tspan></text><rect x="384.5" y="31.5632" width="161" height="29.0581" stroke="#BFBFBF" stroke-width="1.33333" stroke-miterlimit="8" fill="#D9D9D9"/><text fill="#BFBFBF" font-family="Cambria Math,Cambria Math_MSFontService,sans-serif" font-weight="400" font-size="24" transform="matrix(1 0 0 1.002 453.598 21)">𝑐<tspan font-size="18" x="10.4133" y="4.99">3</tspan></text><rect x="13.5001" y="31.5632" width="140" height="29.0581" stroke="#000000" stroke-width="1.33333" stroke-miterlimit="8" fill="#F8CBAD"/><text font-family="Cambria Math,Cambria Math_MSFontService,sans-serif" font-weight="400" font-size="24" transform="matrix(1 0 0 1.002 83.7263 21)">𝑐<tspan font-size="18" x="9.85999" y="4.99">1</tspan></text><path d="M254.5 97.8228C254.5 91.6651 259.482 86.6734 265.627 86.6734L293.373 86.6734C299.518 86.6734 304.5 91.6651 304.5 97.8228L304.5 114.602C304.5 120.76 299.518 125.752 293.373 125.752L265.627 125.752C259.482 125.752 254.5 120.76 254.5 114.602Z" stroke="#000000" stroke-width="1.33333" stroke-miterlimit="8" fill-rule="evenodd"/><path d="M272.5 157.816C272.5 153.942 275.634 150.802 279.5 150.802 283.366 150.802 286.5 153.942 286.5 157.816 286.5 161.689 283.366 164.83 279.5 164.83 275.634 164.83 272.5 161.689 272.5 157.816Z" stroke="#000000" stroke-width="1.33333" stroke-miterlimit="8" fill="#FFFFFF" fill-rule="evenodd"/><path d="M279.5 150.802 279.5 165.152" stroke="#000000" stroke-width="1.33333" stroke-miterlimit="8" fill="none" fill-rule="evenodd"/><path d="M272.5 157.816 287.024 157.816" stroke="#000000" stroke-width="1.33333" stroke-miterlimit="8" fill="none" fill-rule="evenodd"/><path d="M0.666639-0.00603448 0.828657 17.8923-0.504622 17.9044-0.666639 0.00603448ZM4.14978 16.5288 0.222362 24.5647-3.84989 16.6013Z" transform="matrix(-1 0 0 1.002 279.722 125.752)"/><path d="M0-0.666667 97.4797-0.666667 97.4797 182.445 96.1463 182.445 96.1463 0 96.813 0.666667 0 0.666667ZM100.813 181.112 96.813 189.112 92.813 181.112Z" transform="matrix(1.83697e-16 1.002 1 -1.84065e-16 83.5001 60.6213)"/><path d="M439.5 97.8228C439.5 91.6651 444.482 86.6734 450.627 86.6734L478.373 86.6734C484.518 86.6734 489.5 91.6651 489.5 97.8228L489.5 114.602C489.5 120.76 484.518 125.752 478.373 125.752L450.627 125.752C444.482 125.752 439.5 120.76 439.5 114.602Z" stroke="#D9D9D9" stroke-width="1.33333" stroke-miterlimit="8" fill="#D9D9D9" fill-rule="evenodd"/><path d="M0.666639-0.00603448 0.828657 17.8923-0.504622 17.9044-0.666639 0.00603448ZM4.14978 16.5288 0.222362 24.5647-3.84989 16.6013Z" fill="#D9D9D9" transform="matrix(-1 0 0 1.002 464.722 165.832)"/><path d="M0.666665-0.00148876 0.70931 19.095-0.62402 19.098-0.666665 0.00148876ZM4.03966 17.7542 0.0575328 25.7631-3.96032 17.7721Z" fill="#D9D9D9" transform="matrix(-1 0 0 1.002 464.558 60.6213)"/><path d="M457.5 157.816C457.5 153.942 460.634 150.802 464.5 150.802 468.366 150.802 471.5 153.942 471.5 157.816 471.5 161.689 468.366 164.83 464.5 164.83 460.634 164.83 457.5 161.689 457.5 157.816Z" stroke="#D9D9D9" stroke-width="1.33333" stroke-miterlimit="8" fill="#FFFFFF" fill-rule="evenodd"/><path d="M464.5 150.802 464.5 165.152" stroke="#D9D9D9" stroke-width="1.33333" stroke-miterlimit="8" fill="none" fill-rule="evenodd"/><path d="M457.5 157.816 472.024 157.816" stroke="#D9D9D9" stroke-width="1.33333" stroke-miterlimit="8" fill="none" fill-rule="evenodd"/><text font-family="Cambria Math,Cambria Math_MSFontService,sans-serif" font-weight="400" font-size="24" transform="matrix(1 0 0 1.002 212.856 114)">𝑘</text><path d="M227.5 106.045 247.864 106.046 247.864 107.382 227.5 107.381ZM246.531 102.706 254.531 106.714 246.531 110.722Z"/><text fill="#BFBFBF" font-family="Cambria Math,Cambria Math_MSFontService,sans-serif" font-weight="400" font-size="24" transform="matrix(1 0 0 1.002 398.009 114)">𝑘</text><path d="M412.5 106.045 432.864 106.046 432.864 107.382 412.5 107.381ZM431.531 102.706 439.531 106.714 431.531 110.722Z" fill="#D9D9D9"/><text fill="#FFFFFF" font-family="Cambria Math,Cambria Math_MSFontService,sans-serif" font-weight="400" font-size="24" transform="matrix(1 0 0 1.002 259.905 113)">𝐷<tspan font-size="18" x="15.26" y="4.99">𝐵𝐶</tspan><tspan x="184.993" y="-0.998">𝐷</tspan><tspan font-size="18" x="200.253" y="3.992">𝐵𝐶</tspan></text><path d="M280.167 60.617 280.289 79.7351 278.956 79.7436 278.833 60.6256ZM283.614 78.3777 279.665 86.4192 275.614 78.4291Z"/><path d="M0.666639-0.00603448 0.828657 17.8923-0.504622 17.9044-0.666639 0.00603448ZM4.14978 16.5288 0.222362 24.5647-3.84989 16.6013Z" transform="matrix(-1 0 0 1.002 279.722 165.832)"/><path d="M0.666665-0.00148876 0.70931 19.095-0.62402 19.098-0.666665 0.00148876ZM4.03966 17.7542 0.0575328 25.7631-3.96032 17.7721Z" fill="#D9D9D9" transform="matrix(-1 0 0 1.002 464.558 124.75)"/><path d="M33.5001 31.5632 33.5002 60.8719" stroke="#000000" stroke-width="1.33333" stroke-miterlimit="8" fill="none" fill-rule="evenodd"/><path d="M53.5001 31.5632 53.5002 60.8719" stroke="#000000" stroke-width="1.33333" stroke-miterlimit="8" fill="none" fill-rule="evenodd"/><path d="M53.5001 31.5632 53.5002 60.8719" stroke="#000000" stroke-width="1.33333" stroke-miterlimit="8" fill="none" fill-rule="evenodd"/><path d="M73.5001 31.5632 73.5002 60.8719" stroke="#000000" stroke-width="1.33333" stroke-miterlimit="8" fill="none" fill-rule="evenodd"/><path d="M73.5001 31.5632 73.5002 60.8719" stroke="#000000" stroke-width="1.33333" stroke-miterlimit="8" fill="none" fill-rule="evenodd"/><path d="M93.5001 31.5632 93.5002 60.8719" stroke="#000000" stroke-width="1.33333" stroke-miterlimit="8" fill="none" fill-rule="evenodd"/><path d="M93.5001 31.5632 93.5002 60.8719" stroke="#000000" stroke-width="1.33333" stroke-miterlimit="8" fill="none" fill-rule="evenodd"/><path d="M113.5 31.5632 113.5 60.8719" stroke="#000000" stroke-width="1.33333" stroke-miterlimit="8" fill="none" fill-rule="evenodd"/><path d="M113.5 31.5632 113.5 60.8719" stroke="#000000" stroke-width="1.33333" stroke-miterlimit="8" fill="none" fill-rule="evenodd"/><path d="M133.5 31.5632 133.5 60.8719" stroke="#000000" stroke-width="1.33333" stroke-miterlimit="8" fill="none" fill-rule="evenodd"/><path d="M133.5 31.5632 133.5 60.8719" stroke="#000000" stroke-width="1.33333" stroke-miterlimit="8" fill="none" fill-rule="evenodd"/><path d="M219.5 31.5632 219.5 60.8719" stroke="#000000" stroke-width="1.33333" stroke-miterlimit="8" fill="none" fill-rule="evenodd"/><path d="M239.5 31.5632 239.5 60.8719" stroke="#000000" stroke-width="1.33333" stroke-miterlimit="8" fill="none" fill-rule="evenodd"/><path d="M239.5 31.5632 239.5 60.8719" stroke="#000000" stroke-width="1.33333" stroke-miterlimit="8" fill="none" fill-rule="evenodd"/><path d="M259.5 31.5632 259.5 60.8719" stroke="#000000" stroke-width="1.33333" stroke-miterlimit="8" fill="none" fill-rule="evenodd"/><path d="M259.5 31.5632 259.5 60.8719" stroke="#000000" stroke-width="1.33333" stroke-miterlimit="8" fill="none" fill-rule="evenodd"/><path d="M279.5 31.5632 279.5 60.8719" stroke="#000000" stroke-width="1.33333" stroke-miterlimit="8" fill="none" fill-rule="evenodd"/><path d="M279.5 31.5632 279.5 60.8719" stroke="#000000" stroke-width="1.33333" stroke-miterlimit="8" fill="none" fill-rule="evenodd"/><path d="M299.5 31.5632 299.5 60.8719" stroke="#000000" stroke-width="1.33333" stroke-miterlimit="8" fill="none" fill-rule="evenodd"/><path d="M299.5 31.5632 299.5 60.8719" stroke="#000000" stroke-width="1.33333" stroke-miterlimit="8" fill="none" fill-rule="evenodd"/><path d="M319.5 31.5632 319.5 60.8719" stroke="#000000" stroke-width="1.33333" stroke-miterlimit="8" fill="none" fill-rule="evenodd"/><path d="M319.5 31.5632 319.5 60.8719" stroke="#000000" stroke-width="1.33333" stroke-miterlimit="8" fill="none" fill-rule="evenodd"/><path d="M339.5 31.5632 339.5 60.8719" stroke="#000000" stroke-width="1.33333" stroke-miterlimit="8" fill="none" fill-rule="evenodd"/><path d="M339.5 31.5632 339.5 60.8719" stroke="#000000" stroke-width="1.33333" stroke-miterlimit="8" fill="none" fill-rule="evenodd"/><path d="M405.5 31.5632 405.5 60.8719" stroke="#BFBFBF" stroke-width="1.33333" stroke-miterlimit="8" fill="none" fill-rule="evenodd"/><path d="M425.5 31.5632 425.5 60.8719" stroke="#BFBFBF" stroke-width="1.33333" stroke-miterlimit="8" fill="none" fill-rule="evenodd"/><path d="M425.5 31.5632 425.5 60.8719" stroke="#BFBFBF" stroke-width="1.33333" stroke-miterlimit="8" fill="none" fill-rule="evenodd"/><path d="M445.5 31.5632 445.5 60.8719" stroke="#BFBFBF" stroke-width="1.33333" stroke-miterlimit="8" fill="none" fill-rule="evenodd"/><path d="M445.5 31.5632 445.5 60.8719" stroke="#BFBFBF" stroke-width="1.33333" stroke-miterlimit="8" fill="none" fill-rule="evenodd"/><path d="M465.5 31.5632 465.5 60.8719" stroke="#BFBFBF" stroke-width="1.33333" stroke-miterlimit="8" fill="none" fill-rule="evenodd"/><path d="M465.5 31.5632 465.5 60.8719" stroke="#BFBFBF" stroke-width="1.33333" stroke-miterlimit="8" fill="none" fill-rule="evenodd"/><path d="M485.5 31.5632 485.5 60.8719" stroke="#BFBFBF" stroke-width="1.33333" stroke-miterlimit="8" fill="none" fill-rule="evenodd"/><path d="M485.5 31.5632 485.5 60.8719" stroke="#BFBFBF" stroke-width="1.33333" stroke-miterlimit="8" fill="none" fill-rule="evenodd"/><path d="M505.5 31.5632 505.5 60.8719" stroke="#BFBFBF" stroke-width="1.33333" stroke-miterlimit="8" fill="none" fill-rule="evenodd"/><path d="M505.5 31.5632 505.5 60.8719" stroke="#BFBFBF" stroke-width="1.33333" stroke-miterlimit="8" fill="none" fill-rule="evenodd"/><path d="M525.5 31.5632 525.5 60.8719" stroke="#BFBFBF" stroke-width="1.33333" stroke-miterlimit="8" fill="none" fill-rule="evenodd"/><path d="M525.5 31.5632 525.5 60.8719" stroke="#BFBFBF" stroke-width="1.33333" stroke-miterlimit="8" fill="none" fill-rule="evenodd"/><path d="M219.5 190.882 219.5 220.191" stroke="#000000" stroke-width="1.33333" stroke-miterlimit="8" fill="none" fill-rule="evenodd"/><path d="M239.5 190.882 239.5 220.191" stroke="#000000" stroke-width="1.33333" stroke-miterlimit="8" fill="none" fill-rule="evenodd"/><path d="M239.5 190.882 239.5 220.191" stroke="#000000" stroke-width="1.33333" stroke-miterlimit="8" fill="none" fill-rule="evenodd"/><path d="M259.5 190.882 259.5 220.191" stroke="#000000" stroke-width="1.33333" stroke-miterlimit="8" fill="none" fill-rule="evenodd"/><path d="M259.5 190.882 259.5 220.191" stroke="#000000" stroke-width="1.33333" stroke-miterlimit="8" fill="none" fill-rule="evenodd"/><path d="M279.5 190.882 279.5 220.191" stroke="#000000" stroke-width="1.33333" stroke-miterlimit="8" fill="none" fill-rule="evenodd"/><path d="M279.5 190.882 279.5 220.191" stroke="#000000" stroke-width="1.33333" stroke-miterlimit="8" fill="none" fill-rule="evenodd"/><path d="M299.5 190.882 299.5 220.191" stroke="#000000" stroke-width="1.33333" stroke-miterlimit="8" fill="none" fill-rule="evenodd"/><path d="M299.5 190.882 299.5 220.191" stroke="#000000" stroke-width="1.33333" stroke-miterlimit="8" fill="none" fill-rule="evenodd"/><path d="M319.5 190.882 319.5 220.191" stroke="#000000" stroke-width="1.33333" stroke-miterlimit="8" fill="none" fill-rule="evenodd"/><path d="M319.5 190.882 319.5 220.191" stroke="#000000" stroke-width="1.33333" stroke-miterlimit="8" fill="none" fill-rule="evenodd"/><path d="M405.5 190.882 405.5 220.191" stroke="#BFBFBF" stroke-width="1.33333" stroke-miterlimit="8" fill="none" fill-rule="evenodd"/><path d="M425.5 190.882 425.5 220.191" stroke="#BFBFBF" stroke-width="1.33333" stroke-miterlimit="8" fill="none" fill-rule="evenodd"/><path d="M425.5 190.882 425.5 220.191" stroke="#BFBFBF" stroke-width="1.33333" stroke-miterlimit="8" fill="none" fill-rule="evenodd"/><path d="M445.5 190.882 445.5 220.191" stroke="#BFBFBF" stroke-width="1.33333" stroke-miterlimit="8" fill="none" fill-rule="evenodd"/><path d="M445.5 190.882 445.5 220.191" stroke="#BFBFBF" stroke-width="1.33333" stroke-miterlimit="8" fill="none" fill-rule="evenodd"/><path d="M465.5 190.882 465.5 220.191" stroke="#BFBFBF" stroke-width="1.33333" stroke-miterlimit="8" fill="none" fill-rule="evenodd"/><path d="M465.5 190.882 465.5 220.191" stroke="#BFBFBF" stroke-width="1.33333" stroke-miterlimit="8" fill="none" fill-rule="evenodd"/><path d="M485.5 190.882 485.5 220.191" stroke="#BFBFBF" stroke-width="1.33333" stroke-miterlimit="8" fill="none" fill-rule="evenodd"/><path d="M485.5 190.882 485.5 220.191" stroke="#BFBFBF" stroke-width="1.33333" stroke-miterlimit="8" fill="none" fill-rule="evenodd"/><path d="M505.5 190.882 505.5 220.191" stroke="#BFBFBF" stroke-width="1.33333" stroke-miterlimit="8" fill="none" fill-rule="evenodd"/><path d="M525.5 190.882 525.5 220.191" stroke="#BFBFBF" stroke-width="1.33333" stroke-miterlimit="8" fill="none" fill-rule="evenodd"/><rect x="484.5" y="190.882" width="60" height="30.0601" stroke="#BFBFBF" stroke-width="1.33333" stroke-miterlimit="8" fill="#D9D9D9"/><path d="M505.5 190.882 505.5 220.191" stroke="#BFBFBF" stroke-width="1.33333" stroke-miterlimit="8" fill="none" fill-rule="evenodd"/><path d="M525.5 190.882 525.5 220.191" stroke="#BFBFBF" stroke-width="1.33333" stroke-miterlimit="8" fill="none" fill-rule="evenodd"/><rect x="153.5" y="31.5632" width="20" height="29.0581" stroke="#000000" stroke-width="1.33333" stroke-miterlimit="8" fill="#C00000"/><path d="M368 8.01603 550.816 242.485" stroke="#C00000" stroke-width="8" stroke-miterlimit="8" fill="none" fill-rule="evenodd"/><path d="M0 0 183.289 232.833" stroke="#C00000" stroke-width="8" stroke-miterlimit="8" fill="none" fill-rule="evenodd" transform="matrix(-1 0 0 1.002 550.289 8.01603)"/><rect x="339.5" y="190.882" width="20" height="30.0601" stroke="#000000" stroke-width="1.33333" stroke-miterlimit="8" fill="#C00000"/><text font-family="Cambria Math,Cambria Math_MSFontService,sans-serif" font-weight="400" font-size="24" transform="matrix(1 0 0 1.002 285.344 141)">𝑥</text></g></svg>