<svg width="567" height="227" xmlns="http://www.w3.org/2000/svg" xmlns:xlink="http://www.w3.org/1999/xlink" overflow="hidden"><defs><clipPath id="clip0"><rect x="0" y="0" width="567" height="227"/></clipPath></defs><g clip-path="url(#clip0)"><rect x="0" y="0" width="567" height="227.167" fill="#FFFFFF"/><rect x="197.5" y="21.5159" width="161" height="30.022" stroke="#000000" stroke-width="1.33333" stroke-miterlimit="8" fill="#B4C7E7"/><text font-family="Cambria Math,Cambria Math_MSFontService,sans-serif" font-weight="400" font-size="24" transform="matrix(1 0 0 1.00073 262.665 41)">π‘<tspan font-size="18" x="19.6133" y="4.99633">1</tspan></text><rect x="383.5" y="21.5159" width="160" height="30.022" stroke="#000000" stroke-width="1.33333" stroke-miterlimit="8" fill="#B4C7E7"/><text font-family="Cambria Math,Cambria Math_MSFontService,sans-serif" font-weight="400" font-size="24" transform="matrix(1 0 0 1.00073 447.286 41)">π‘<tspan font-size="18" x="20.1667" y="4.99633">2</tspan></text><rect x="197.5" y="178.631" width="161" height="29.0213" stroke="#000000" stroke-width="1.33333" stroke-miterlimit="8" fill="#F8CBAD"/><text font-family="Cambria Math,Cambria Math_MSFontService,sans-serif" font-weight="400" font-size="24" transform="matrix(1 0 0 1.00073 266.869 197)">π‘<tspan font-size="18" x="9.86002" y="4.99633">1</tspan></text><rect x="383.5" y="178.631" width="161" height="29.0213" stroke="#000000" stroke-width="1.33333" stroke-miterlimit="8" fill="#F8CBAD"/><text font-family="Cambria Math,Cambria Math_MSFontService,sans-serif" font-weight="400" font-size="24" transform="matrix(1 0 0 1.00073 452.446 197)">π‘<tspan font-size="18" x="10.4133" y="4.99633">2</tspan></text><rect x="11.5001" y="178.631" width="161" height="29.0213" stroke="#000000" stroke-width="1.33333" stroke-miterlimit="8" fill="#C5E0B4"/><text font-family="Cambria Math,Cambria Math_MSFontService,sans-serif" font-weight="400" font-size="24" transform="matrix(1 0 0 1.00073 79.0663 202)">πΌπ‘‰</text><path d="M253.5 125.719C253.5 119.57 258.482 114.584 264.627 114.584L291.373 114.584C297.518 114.584 302.5 119.57 302.5 125.719L302.5 142.478C302.5 148.627 297.518 153.613 291.373 153.613L264.627 153.613C258.482 153.613 253.5 148.627 253.5 142.478Z" stroke="#000000" stroke-width="1.33333" stroke-miterlimit="8" fill-rule="evenodd"/><path d="M270.5 82.5607C270.5 78.6918 273.858 75.5555 278 75.5555 282.142 75.5555 285.5 78.6918 285.5 82.5607 285.5 86.4295 282.142 89.5658 278 89.5658 273.858 89.5658 270.5 86.4295 270.5 82.5607Z" stroke="#000000" stroke-width="1.33333" stroke-miterlimit="8" fill="#FFFFFF" fill-rule="evenodd"/><path d="M277.5 75.5555 277.5 89.8877" stroke="#000000" stroke-width="1.33333" stroke-miterlimit="8" fill="none" fill-rule="evenodd"/><path d="M270.5 82.5607 285.024 82.5608" stroke="#000000" stroke-width="1.33333" stroke-miterlimit="8" fill="none" fill-rule="evenodd"/><path d="M0.666639-0.00603448 0.828657 17.8923-0.504622 17.9044-0.666639 0.00603448ZM4.14978 16.5288 0.222362 24.5647-3.84989 16.6013Z" transform="matrix(-1 0 0 1.00073 277.722 51.5379)"/><path d="M0.666667-1.71734e-05 0.667125 17.7866-0.666208 17.7867-0.666667 1.71734e-05ZM4.00042 16.4532 0.000629921 24.4533-3.99958 16.4534Z" transform="matrix(-1 0 0 1.00073 277.501 89.5658)"/><path d="M91.8334 178.216 91.8334 81.8935 264.449 81.8935 264.449 83.2278 92.5001 83.2278 93.1667 82.5607 93.1667 178.216ZM263.115 78.5577 271.115 82.5607 263.115 86.5636Z"/><path d="M278.167 153.607 278.329 171.607 276.996 171.62 276.833 153.619ZM281.651 170.243 277.723 178.285 273.651 170.315Z"/><path d="M438.5 125.719C438.5 119.57 443.482 114.584 449.627 114.584L477.373 114.584C483.518 114.584 488.5 119.57 488.5 125.719L488.5 142.478C488.5 148.627 483.518 153.613 477.373 153.613L449.627 153.613C443.482 153.613 438.5 148.627 438.5 142.478Z" stroke="#000000" stroke-width="1.33333" stroke-miterlimit="8" fill-rule="evenodd"/><path d="M0.666639-0.00603448 0.828657 17.8923-0.504622 17.9044-0.666639 0.00603448ZM4.14978 16.5288 0.222362 24.5647-3.84989 16.6013Z" transform="matrix(-1 0 0 1.00073 463.722 51.5379)"/><path d="M0.666667-1.71734e-05 0.667125 17.7866-0.666208 17.7867-0.666667 1.71734e-05ZM4.00042 16.4532 0.000629921 24.4533-3.99958 16.4534Z" transform="matrix(-1 0 0 1.00073 463.501 89.5658)"/><path d="M464.167 153.607 464.329 171.607 462.996 171.62 462.833 153.619ZM467.651 170.243 463.723 178.285 459.651 170.315Z"/><path d="M456.5 82.5607C456.5 78.6918 459.858 75.5555 464 75.5555 468.142 75.5555 471.5 78.6918 471.5 82.5607 471.5 86.4295 468.142 89.5658 464 89.5658 459.858 89.5658 456.5 86.4295 456.5 82.5607Z" stroke="#000000" stroke-width="1.33333" stroke-miterlimit="8" fill="#FFFFFF" fill-rule="evenodd"/><path d="M463.5 75.5555 463.5 89.8877" stroke="#000000" stroke-width="1.33333" stroke-miterlimit="8" fill="none" fill-rule="evenodd"/><path d="M456.5 82.5607 471.024 82.5608" stroke="#000000" stroke-width="1.33333" stroke-miterlimit="8" fill="none" fill-rule="evenodd"/><path d="M0 0.666667-0.0674408 0.666667 0.599226 0 0.599226 95.7685-0.0674408 95.1018 111.698 95.1018 111.698 96.4352-0.734107 96.4352-0.734107-0.666667 0-0.666667ZM110.365 91.7685 118.365 95.7685 110.365 99.7685Z" transform="matrix(1 0 0 -1.00073 338.5 178.4)"/><path d="M523.5 178.4 523.5 82.945 528.568 82.945 528.568 82.5607" stroke="#000000" stroke-width="1.33431" stroke-miterlimit="8" fill="none" fill-rule="evenodd"/><path d="M528.5 83.5614 543.654 83.5615" stroke="#000000" stroke-width="1.33333" stroke-miterlimit="8" stroke-dasharray="1.33333 1.33333" fill="none" fill-rule="evenodd"/><text font-family="Cambria Math,Cambria Math_MSFontService,sans-serif" font-weight="400" font-size="24" transform="matrix(1 0 0 1.00073 209.145 142)">π‘</text><path d="M226.5 133.932 246.864 133.932 246.864 135.266 226.5 135.266ZM245.531 130.596 253.531 134.599 245.531 138.602Z"/><text font-family="Cambria Math,Cambria Math_MSFontService,sans-serif" font-weight="400" font-size="24" transform="matrix(1 0 0 1.00073 394.549 142)">π‘</text><path d="M411.5 133.932 431.864 133.932 431.864 135.266 411.5 135.266ZM430.531 130.596 438.531 134.599 430.531 138.602Z"/><text fill="#FFFFFF" font-family="Cambria Math,Cambria Math_MSFontService,sans-serif" font-weight="400" font-size="24" transform="matrix(1 0 0 1.00073 258.526 139)">πΈ<tspan font-size="18" x="13.7133" y="4.99633">πµπ¶</tspan><tspan x="185.332" y="0.999266">πΈ</tspan><tspan font-size="18" x="199.046" y="5.99559">πµπ¶</tspan></text></g></svg>